# xmcd
#
# Track frame offsets: 
#        150
#        7390
#        19390
#        31104
#        50943
#        70106
#        81000
#        92943
#        110082
#        128074
#        143354
#        158894
#        172120
#        185968
#        204266
#        213748
#
# Disc length: 2942 seconds
#
# Revision: 0
# Processed by: cddbd v1.5.2PL0 Copyright (c) Steve Scherf et al.
# Submitted via: ExactAudioCopyFreeDBPlugin 1.0
#
DISCID=ee0b7c10
DTITLE=White Dove - Uncaged
DYEAR=2004
DGENRE=Christian Country
TTITLE0=Intro
TTITLE1=A Beautiful Life
TTITLE2=The River of Jordan
TTITLE3=Anywhere is Home
TTITLE4=Green Pastures
TTITLE5=God Lives Up On A Mountain
TTITLE6=Palms of Victory
TTITLE7=Wayfaring Stranger
TTITLE8=I'll Fly Away
TTITLE9=Let's Meet By The River
TTITLE10=Working on a Building
TTITLE11=Cannaan's Land
TTITLE12=Jesus Savior Pilot Me
TTITLE13=Set Your Fields on Fire
TTITLE14=What a Friend
TTITLE15=Outro
EXTD=
EXTT0=
EXTT1=
EXTT2=
EXTT3=
EXTT4=
EXTT5=
EXTT6=
EXTT7=
EXTT8=
EXTT9=
EXTT10=
EXTT11=
EXTT12=
EXTT13=
EXTT14=
EXTT15=
PLAYORDER=
